<svg width="800" height="608" viewBox="0 0 800 608" fill="none" xmlns="http://www.w3.org/2000/svg">
<rect width="800" height="608" fill="#E5E5E5"/>
<g id="undraw_web_search_eetr 1" clip-path="url(#clip0)">
<path id="Vector" d="M644.137 0.365021H0.274902V412.723H644.137V0.365021Z" fill="#E6E6E6"/>
<path id="Vector_2" d="M625.725 52.0849H18.686V388.328H625.725V52.0849Z" fill="white"/>
<path id="Vector_3" d="M643.862 0H0V27.3536H643.862V0Z" fill="#960F4A"/>
<path id="Vector_4" d="M20.327 19.0544C23.1269 19.0544 25.3968 16.7846 25.3968 13.9846C25.3968 11.1846 23.1269 8.91483 20.327 8.91483C17.527 8.91483 15.2572 11.1846 15.2572 13.9846C15.2572 16.7846 17.527 19.0544 20.327 19.0544Z" fill="white"/>
<path id="Vector_5" d="M39.5706 19.0544C42.3706 19.0544 44.6404 16.7846 44.6404 13.9846C44.6404 11.1846 42.3706 8.91483 39.5706 8.91483C36.7707 8.91483 34.5009 11.1846 34.5009 13.9846C34.5009 16.7846 36.7707 19.0544 39.5706 19.0544Z" fill="white"/>
<path id="Vector_6" d="M58.8142 19.0544C61.6142 19.0544 63.884 16.7846 63.884 13.9846C63.884 11.1846 61.6142 8.91483 58.8142 8.91483C56.0143 8.91483 53.7444 11.1846 53.7444 13.9846C53.7444 16.7846 56.0143 19.0544 58.8142 19.0544Z" fill="white"/>
<path id="Vector_7" d="M229.824 86.9728H73.8438V353.44H229.824V86.9728Z" fill="#E6E6E6"/>
<path id="Vector_8" d="M386.733 86.9728H256.75V160.321H386.733V86.9728Z" fill="#960F4A"/>
<path id="Vector_9" d="M386.733 180.747H256.75V259.666H386.733V180.747Z" fill="#E6E6E6"/>
<path id="Vector_10" d="M386.733 280.092H256.75V353.44H386.733V280.092Z" fill="#E6E6E6"/>
<path id="Vector_11" d="M570.568 86.9728H414.587V203.098H570.568V86.9728Z" fill="#E6E6E6"/>
<path id="Vector_12" d="M570.568 237.315H414.587V353.44H570.568V237.315Z" fill="#960F4A"/>
<path id="Vector_13" d="M736.639 206.679C726.35 189.144 705.994 188.326 705.994 188.326C705.994 188.326 686.158 185.768 673.434 212.475C661.574 237.368 645.205 261.402 670.799 267.23L675.422 252.717L678.285 268.31C681.929 268.575 685.584 268.638 689.235 268.499C716.644 267.606 742.746 268.76 741.906 258.84C740.789 245.652 746.539 223.552 736.639 206.679Z" fill="#2F2E41"/>
<path id="Vector_14" d="M639.068 300.306L630.068 323.306L585.068 365.306C585.068 365.306 558.068 385.306 570.068 391.306C582.068 397.306 593.068 369.306 593.068 369.306L641.068 340.306L651.068 307.306L639.068 300.306Z" fill="#FFB8B8"/>
<path id="Vector_15" d="M654.068 555.306L663.068 578.306H676.068L665.068 551.306L654.068 555.306Z" fill="#FFB8B8"/>
<path id="Vector_16" d="M693.068 565.306L702.068 588.306H715.068L704.068 561.306L693.068 565.306Z" fill="#FFB8B8"/>
<path id="Vector_17" d="M692.068 569.306L709.068 565.306L687.068 476.306L694.373 407.825L694.568 407.806C694.568 407.806 707.068 359.306 697.068 346.306C687.068 333.306 637.068 338.306 637.068 338.306C637.068 338.306 618.068 357.306 619.068 400.306C620.068 443.306 619.068 480.306 626.068 497.306C633.068 514.306 653.068 559.306 653.068 559.306L669.068 557.306L652.068 483.306L649.35 418.979C651.513 444.757 655.867 493.637 658.068 497.306C661.068 502.306 692.068 569.306 692.068 569.306Z" fill="#2F2E41"/>
<path id="Vector_18" d="M743.068 321.306L750.068 346.306L781.068 402.306C781.068 402.306 808.068 426.306 797.068 429.306C786.068 432.306 769.068 407.306 769.068 407.306L734.068 358.306L725.068 322.306L743.068 321.306Z" fill="#FFB8B8"/>
<path id="Vector_19" d="M707.068 250.306C720.875 250.306 732.068 239.113 732.068 225.306C732.068 211.499 720.875 200.306 707.068 200.306C693.261 200.306 682.068 211.499 682.068 225.306C682.068 239.113 693.261 250.306 707.068 250.306Z" fill="#FFB8B8"/>
<path id="Vector_20" d="M694.068 238.306L688.068 257.306L678.068 279.306L715.068 264.306C715.068 264.306 713.068 248.306 715.068 244.306L694.068 238.306Z" fill="#FFB8B8"/>
<path id="Vector_21" d="M737.068 278.306L714.068 259.306L688.068 270.306L689.087 254.08L661.346 262.94L657.068 264.306L651.068 295.306C651.068 295.306 647.068 298.306 643.068 315.306C640.759 325.296 637.407 335.016 633.068 344.306C633.068 344.306 676.068 327.306 697.068 350.306C697.068 350.306 700.068 348.306 699.068 345.306C698.068 342.306 708.068 327.306 708.068 327.306C708.068 327.306 708.068 330.306 712.068 324.306C716.068 318.306 719.068 317.306 719.068 317.306L737.068 278.306Z" fill="#960F4A"/>
<path id="Vector_22" d="M663.068 267.306L658.7 263.784C658.7 263.784 655.068 262.306 652.068 267.306C649.068 272.306 634.068 303.306 634.068 303.306L652.068 312.306L663.068 267.306Z" fill="#960F4A"/>
<path id="Vector_23" d="M723.068 277.306L737.068 278.306C737.068 278.306 745.068 282.306 745.068 288.306C745.068 294.306 747.068 326.306 747.068 326.306L725.068 333.306L716.068 305.306L723.068 277.306Z" fill="#960F4A"/>
<path id="Vector_24" d="M660.179 574.806L643.179 581.806C643.179 581.806 623.179 582.806 626.179 592.806C629.179 602.806 659.179 595.806 659.179 595.806C659.179 595.806 686.179 596.806 686.179 589.806C686.179 582.806 682.179 574.806 678.179 574.806H660.179Z" fill="#2F2E41"/>
<path id="Vector_25" d="M698.179 583.806L681.179 590.806C681.179 590.806 661.179 591.806 664.179 601.806C667.179 611.806 697.179 604.806 697.179 604.806C697.179 604.806 724.179 605.806 724.179 598.806C724.179 591.806 720.179 583.806 716.179 583.806H698.179Z" fill="#2F2E41"/>
<path id="Vector_26" d="M732.09 204.989L711.979 194.363L684.208 198.71L678.462 224.307L692.765 223.753L696.761 214.348V223.598L703.361 223.342L707.191 208.37L709.585 224.307L733.048 223.824L732.09 204.989Z" fill="#2F2E41"/>
<path id="404 PAGE NOT FOUND" d="M54.3594 437.156H58.2266V442.617H54.3594V450H47.5859V442.617H33.5938L33.2891 438.352L47.5156 415.875H54.3594V437.156ZM40.0391 437.156H47.5859V425.109L47.1406 425.883L40.0391 437.156ZM84.8516 435.891C84.8516 440.609 83.875 444.219 81.9219 446.719C79.9688 449.219 77.1094 450.469 73.3438 450.469C69.625 450.469 66.7812 449.242 64.8125 446.789C62.8438 444.336 61.8359 440.82 61.7891 436.242V429.961C61.7891 425.195 62.7734 421.578 64.7422 419.109C66.7266 416.641 69.5781 415.406 73.2969 415.406C77.0156 415.406 79.8594 416.633 81.8281 419.086C83.7969 421.523 84.8047 425.031 84.8516 429.609V435.891ZM78.0781 429C78.0781 426.172 77.6875 424.117 76.9062 422.836C76.1406 421.539 74.9375 420.891 73.2969 420.891C71.7031 420.891 70.5234 421.508 69.7578 422.742C69.0078 423.961 68.6094 425.875 68.5625 428.484V436.781C68.5625 439.562 68.9375 441.633 69.6875 442.992C70.4531 444.336 71.6719 445.008 73.3438 445.008C75 445.008 76.1953 444.359 76.9297 443.062C77.6641 441.766 78.0469 439.781 78.0781 437.109V429ZM109.484 437.156H113.352V442.617H109.484V450H102.711V442.617H88.7188L88.4141 438.352L102.641 415.875H109.484V437.156ZM95.1641 437.156H102.711V425.109L102.266 425.883L95.1641 437.156ZM136.719 437.977V450H129.688V415.875H143C145.562 415.875 147.812 416.344 149.75 417.281C151.703 418.219 153.203 419.555 154.25 421.289C155.297 423.008 155.82 424.969 155.82 427.172C155.82 430.516 154.672 433.156 152.375 435.094C150.094 437.016 146.93 437.977 142.883 437.977H136.719ZM136.719 432.281H143C144.859 432.281 146.273 431.844 147.242 430.969C148.227 430.094 148.719 428.844 148.719 427.219C148.719 425.547 148.227 424.195 147.242 423.164C146.258 422.133 144.898 421.602 143.164 421.57H136.719V432.281ZM175.766 442.969H163.438L161.094 450H153.617L166.32 415.875H172.836L185.609 450H178.133L175.766 442.969ZM165.336 437.273H173.867L169.578 424.5L165.336 437.273ZM215.281 445.688C214.016 447.203 212.227 448.383 209.914 449.227C207.602 450.055 205.039 450.469 202.227 450.469C199.273 450.469 196.68 449.828 194.445 448.547C192.227 447.25 190.508 445.375 189.289 442.922C188.086 440.469 187.469 437.586 187.438 434.273V431.953C187.438 428.547 188.008 425.602 189.148 423.117C190.305 420.617 191.961 418.711 194.117 417.398C196.289 416.07 198.828 415.406 201.734 415.406C205.781 415.406 208.945 416.375 211.227 418.312C213.508 420.234 214.859 423.039 215.281 426.727H208.438C208.125 424.773 207.43 423.344 206.352 422.438C205.289 421.531 203.82 421.078 201.945 421.078C199.555 421.078 197.734 421.977 196.484 423.773C195.234 425.57 194.602 428.242 194.586 431.789V433.969C194.586 437.547 195.266 440.25 196.625 442.078C197.984 443.906 199.977 444.82 202.602 444.82C205.242 444.82 207.125 444.258 208.25 443.133V437.25H201.852V432.07H215.281V445.688ZM241.531 435.211H228.031V444.352H243.875V450H221V415.875H243.828V421.57H228.031V429.703H241.531V435.211ZM287.703 450H280.672L266.984 427.547V450H259.953V415.875H266.984L280.695 438.375V415.875H287.703V450ZM321.875 433.711C321.875 437.07 321.281 440.016 320.094 442.547C318.906 445.078 317.203 447.031 314.984 448.406C312.781 449.781 310.25 450.469 307.391 450.469C304.562 450.469 302.039 449.789 299.82 448.43C297.602 447.07 295.883 445.133 294.664 442.617C293.445 440.086 292.828 437.18 292.812 433.898V432.211C292.812 428.852 293.414 425.898 294.617 423.352C295.836 420.789 297.547 418.828 299.75 417.469C301.969 416.094 304.5 415.406 307.344 415.406C310.188 415.406 312.711 416.094 314.914 417.469C317.133 418.828 318.844 420.789 320.047 423.352C321.266 425.898 321.875 428.844 321.875 432.188V433.711ZM314.75 432.164C314.75 428.586 314.109 425.867 312.828 424.008C311.547 422.148 309.719 421.219 307.344 421.219C304.984 421.219 303.164 422.141 301.883 423.984C300.602 425.812 299.953 428.5 299.938 432.047V433.711C299.938 437.195 300.578 439.898 301.859 441.82C303.141 443.742 304.984 444.703 307.391 444.703C309.75 444.703 311.562 443.781 312.828 441.938C314.094 440.078 314.734 437.375 314.75 433.828V432.164ZM350.656 421.57H340.203V450H333.172V421.57H322.859V415.875H350.656V421.57ZM385.766 436.055H372.266V450H365.234V415.875H387.453V421.57H372.266V430.383H385.766V436.055ZM419.562 433.711C419.562 437.07 418.969 440.016 417.781 442.547C416.594 445.078 414.891 447.031 412.672 448.406C410.469 449.781 407.938 450.469 405.078 450.469C402.25 450.469 399.727 449.789 397.508 448.43C395.289 447.07 393.57 445.133 392.352 442.617C391.133 440.086 390.516 437.18 390.5 433.898V432.211C390.5 428.852 391.102 425.898 392.305 423.352C393.523 420.789 395.234 418.828 397.438 417.469C399.656 416.094 402.188 415.406 405.031 415.406C407.875 415.406 410.398 416.094 412.602 417.469C414.82 418.828 416.531 420.789 417.734 423.352C418.953 425.898 419.562 428.844 419.562 432.188V433.711ZM412.438 432.164C412.438 428.586 411.797 425.867 410.516 424.008C409.234 422.148 407.406 421.219 405.031 421.219C402.672 421.219 400.852 422.141 399.57 423.984C398.289 425.812 397.641 428.5 397.625 432.047V433.711C397.625 437.195 398.266 439.898 399.547 441.82C400.828 443.742 402.672 444.703 405.078 444.703C407.438 444.703 409.25 443.781 410.516 441.938C411.781 440.078 412.422 437.375 412.438 433.828V432.164ZM450.5 415.875V438.352C450.5 442.086 449.328 445.039 446.984 447.211C444.656 449.383 441.469 450.469 437.422 450.469C433.438 450.469 430.273 449.414 427.93 447.305C425.586 445.195 424.391 442.297 424.344 438.609V415.875H431.375V438.398C431.375 440.633 431.906 442.266 432.969 443.297C434.047 444.312 435.531 444.82 437.422 444.82C441.375 444.82 443.383 442.742 443.445 438.586V415.875H450.5ZM484.016 450H476.984L463.297 427.547V450H456.266V415.875H463.297L477.008 438.375V415.875H484.016V450ZM490.156 450V415.875H500.656C503.656 415.875 506.336 416.555 508.695 417.914C511.07 419.258 512.922 421.18 514.25 423.68C515.578 426.164 516.242 428.992 516.242 432.164V433.734C516.242 436.906 515.586 439.727 514.273 442.195C512.977 444.664 511.141 446.578 508.766 447.938C506.391 449.297 503.711 449.984 500.727 450H490.156ZM497.188 421.57V444.352H500.586C503.336 444.352 505.438 443.453 506.891 441.656C508.344 439.859 509.086 437.289 509.117 433.945V432.141C509.117 428.672 508.398 426.047 506.961 424.266C505.523 422.469 503.422 421.57 500.656 421.57H497.188Z" fill="black"/>
<g id="search 1">
<g id="undraw web search eetr 1">
<path id="Vector_27" d="M598.394 101.175C579.44 84.8784 556.246 74.5465 531.635 71.4366C507.024 68.3268 482.055 72.5731 459.769 83.6587C437.483 94.7444 418.84 112.191 406.107 133.876C393.375 155.563 387.103 180.552 388.054 205.802C389.006 231.054 397.139 255.479 411.466 276.106C425.793 296.733 445.694 312.673 468.749 321.985C491.803 331.297 517.017 333.58 541.322 328.557C565.628 323.533 587.975 311.42 605.647 293.691L762.57 428.611C763.754 429.629 765.122 430.399 766.597 430.878C768.072 431.357 769.626 431.535 771.169 431.401C772.711 431.268 774.213 430.827 775.589 430.102C776.964 429.378 778.186 428.384 779.184 427.179C780.182 425.973 780.938 424.579 781.407 423.075C781.877 421.572 782.052 419.989 781.921 418.417C781.79 416.845 781.356 415.315 780.646 413.913C779.934 412.512 778.959 411.268 777.776 410.25L620.853 275.329C639.082 248.67 646.884 216.035 642.729 183.82C638.575 151.604 622.764 122.131 598.394 101.175ZM588.278 262.337C576.053 277.1 559.806 287.838 541.592 293.192C523.379 298.545 504.015 298.276 485.951 292.418C467.888 286.558 451.935 275.372 440.11 260.276C428.286 245.178 421.12 226.846 419.519 207.599C417.919 188.352 421.956 169.054 431.12 152.144C440.284 135.235 454.163 121.474 471.001 112.602C487.84 103.73 506.883 100.145 525.721 102.301C544.559 104.457 562.347 112.256 576.836 124.713C596.263 141.417 608.384 165.3 610.53 191.11C612.675 216.92 604.671 242.541 588.278 262.337Z" fill="#3F3D56"/>
</g>
</g>
</g>
<defs>
<clipPath id="clip0">
<rect width="799.703" height="607.188" fill="white"/>
</clipPath>
</defs>
</svg>
